<svg xmlns="http://www.w3.org/2000/svg" viewBox="0 0 512 512">
  <defs>
    <linearGradient id="bg" x1="0" y1="0" x2="1" y2="1">
      <stop offset="0" stop-color="#CCFBFA"/>
      <stop offset="1" stop-color="#B1E5E6"/>
    </linearGradient>
    <linearGradient id="core" x1="0" y1="0" x2="1" y2="1">
      <stop offset="0" stop-color="#234D50"/>
      <stop offset="1" stop-color="#102B2D"/>
    </linearGradient>
    <filter id="shadow" x="-30%" y="-30%" width="160%" height="160%"><feGaussianBlur stdDeviation="10"/></filter>
  </defs>
  <rect x="28" y="28" width="456" height="456" rx="112" fill="#173638" opacity=".18" filter="url(#shadow)"/>
  <rect x="24" y="24" width="464" height="464" rx="112" fill="url(#bg)"/>
  <path d="M75 270C88 150 180 74 294 70C185 104 120 180 116 292C104 286 88 278 75 270Z" fill="#fff" opacity=".34"/>
  <path d="M400 92C450 142 468 204 458 270C448 214 420 166 376 132Z" fill="#fff" opacity=".25"/>
  <circle cx="256" cy="256" r="142" fill="url(#core)"/>
  <path d="M214 170L346 256L214 342Z" fill="#fff"/>
  <path d="M166 370H346V390H166Z" fill="#5C9FA2"/>
  <path d="M342 134L399 77L425 103L368 160Z" fill="#fff" opacity=".9"/>
  <path d="M116 350C150 408 207 440 273 441C206 454 136 421 103 365Z" fill="#5C9FA2" opacity=".5"/>
</svg>
